<svg xmlns="http://www.w3.org/2000/svg" width="30" height="30" viewBox="0 0 30 30">
  <g id="Group_1778" data-name="Group 1778" transform="translate(-638 -2825)">
    <circle id="Ellipse_4" data-name="Ellipse 4" cx="15" cy="15" r="15" transform="translate(638 2825)" fill="#7575cf"/>
    <path id="Icon_awesome-instagram" data-name="Icon awesome-instagram" d="M8.245,6.256a4.229,4.229,0,1,0,4.229,4.229A4.222,4.222,0,0,0,8.245,6.256Zm0,6.978a2.749,2.749,0,1,1,2.749-2.749A2.754,2.754,0,0,1,8.245,13.234Zm5.388-7.151a.986.986,0,1,1-.986-.986A.984.984,0,0,1,13.634,6.083Zm2.8,1A4.881,4.881,0,0,0,15.1,3.628,4.913,4.913,0,0,0,11.646,2.3c-1.362-.077-5.443-.077-6.805,0A4.906,4.906,0,0,0,1.385,3.624,4.9,4.9,0,0,0,.053,7.08c-.077,1.362-.077,5.443,0,6.805a4.881,4.881,0,0,0,1.332,3.456,4.92,4.92,0,0,0,3.456,1.332c1.362.077,5.443.077,6.805,0A4.881,4.881,0,0,0,15.1,17.342a4.913,4.913,0,0,0,1.332-3.456c.077-1.362.077-5.44,0-6.8Zm-1.759,8.263a2.783,2.783,0,0,1-1.568,1.568c-1.086.431-3.662.331-4.862.331s-3.78.1-4.862-.331a2.783,2.783,0,0,1-1.568-1.568c-.431-1.086-.331-3.662-.331-4.862s-.1-3.78.331-4.862A2.783,2.783,0,0,1,3.384,4.055c1.086-.431,3.662-.331,4.862-.331s3.78-.1,4.862.331a2.783,2.783,0,0,1,1.568,1.568c.431,1.086.331,3.662.331,4.862S15.106,14.265,14.675,15.347Z" transform="translate(645.005 2829.762)" fill="#1e1e1e"/>
  </g>
</svg>
