<svg xmlns="http://www.w3.org/2000/svg" width="30" height="30" viewBox="0 0 30 30">
  <g id="Group_1779" data-name="Group 1779" transform="translate(-673 -2825)">
    <circle id="Ellipse_4" data-name="Ellipse 4" cx="15" cy="15" r="15" transform="translate(673 2825)" fill="#7575cf"/>
    <path id="Icon_awesome-youtube" data-name="Icon awesome-youtube" d="M20.73,6.711a2.526,2.526,0,0,0-1.777-1.789C17.386,4.5,11.1,4.5,11.1,4.5s-6.286,0-7.853.423A2.526,2.526,0,0,0,1.47,6.711a26.5,26.5,0,0,0-.42,4.869,26.5,26.5,0,0,0,.42,4.869,2.488,2.488,0,0,0,1.777,1.76c1.568.423,7.853.423,7.853.423s6.286,0,7.853-.423a2.488,2.488,0,0,0,1.777-1.76,26.5,26.5,0,0,0,.42-4.869,26.5,26.5,0,0,0-.42-4.869ZM9.044,14.569V8.592L14.3,11.581,9.044,14.569Z" transform="translate(676.95 2828.5)" fill="#1e1e1e"/>
  </g>
</svg>
