<svg xmlns="http://www.w3.org/2000/svg" width="30" height="30" viewBox="0 0 30 30">
  <g id="Group_1780" data-name="Group 1780" transform="translate(-708 -2825)">
    <circle id="Ellipse_4" data-name="Ellipse 4" cx="15" cy="15" r="15" transform="translate(708 2825)" fill="#7575cf"/>
    <path id="Icon_awesome-linkedin-in" data-name="Icon awesome-linkedin-in" d="M3.691,16.489H.272V5.481H3.691ZM1.98,3.979a1.989,1.989,0,1,1,1.98-2A2,2,0,0,1,1.98,3.979Zm14.505,12.51H13.074V11.13c0-1.277-.026-2.915-1.777-2.915-1.777,0-2.05,1.388-2.05,2.823v5.451H5.832V5.481H9.111v1.5h.048A3.592,3.592,0,0,1,12.393,5.2c3.46,0,4.1,2.278,4.1,5.237v6.047Z" transform="translate(715 2829.999)" fill="#1e1e1e"/>
  </g>
</svg>
