<svg xmlns="http://www.w3.org/2000/svg" width="18.844" height="15.305" viewBox="0 0 18.844 15.305">
  <path id="Icon_awesome-twitter" data-name="Icon awesome-twitter" d="M16.907,7.2c.012.167.012.335.012.5A10.913,10.913,0,0,1,5.931,18.686,10.914,10.914,0,0,1,0,16.952,7.989,7.989,0,0,0,.933,17a7.735,7.735,0,0,0,4.795-1.65,3.869,3.869,0,0,1-3.611-2.678,4.87,4.87,0,0,0,.729.06A4.085,4.085,0,0,0,3.862,12.6a3.863,3.863,0,0,1-3.1-3.79V8.761a3.89,3.89,0,0,0,1.746.49,3.868,3.868,0,0,1-1.2-5.165A10.978,10.978,0,0,0,9.279,8.128a4.36,4.36,0,0,1-.1-.885A3.866,3.866,0,0,1,15.867,4.6a7.6,7.6,0,0,0,2.451-.933A3.852,3.852,0,0,1,16.62,5.8a7.742,7.742,0,0,0,2.224-.6,8.3,8.3,0,0,1-1.937,2Z" transform="translate(0 -3.381)" fill="#1e1e1e"/>
</svg>
