<svg xmlns="http://www.w3.org/2000/svg" width="20.1" height="14.133" viewBox="0 0 20.1 14.133">
  <path id="Icon_awesome-youtube" data-name="Icon awesome-youtube" d="M20.73,6.711a2.526,2.526,0,0,0-1.777-1.789C17.386,4.5,11.1,4.5,11.1,4.5s-6.286,0-7.853.423A2.526,2.526,0,0,0,1.47,6.711a26.5,26.5,0,0,0-.42,4.869,26.5,26.5,0,0,0,.42,4.869,2.488,2.488,0,0,0,1.777,1.76c1.568.423,7.853.423,7.853.423s6.286,0,7.853-.423a2.488,2.488,0,0,0,1.777-1.76,26.5,26.5,0,0,0,.42-4.869,26.5,26.5,0,0,0-.42-4.869ZM9.044,14.569V8.592L14.3,11.581,9.044,14.569Z" transform="translate(-1.05 -4.5)" fill="#1e1e1e"/>
</svg>
