<svg xmlns="http://www.w3.org/2000/svg" width="16.489" height="16.488" viewBox="0 0 16.489 16.488">
  <path id="Icon_awesome-linkedin-in" data-name="Icon awesome-linkedin-in" d="M3.691,16.489H.272V5.481H3.691ZM1.98,3.979a1.989,1.989,0,1,1,1.98-2A2,2,0,0,1,1.98,3.979Zm14.505,12.51H13.074V11.13c0-1.277-.026-2.915-1.777-2.915-1.777,0-2.05,1.388-2.05,2.823v5.451H5.832V5.481H9.111v1.5h.048A3.592,3.592,0,0,1,12.393,5.2c3.46,0,4.1,2.278,4.1,5.237v6.047Z" transform="translate(0 -0.001)" fill="#1e1e1e"/>
</svg>
